<svg xmlns="http://www.w3.org/2000/svg" viewBox="0 0 168 168" id="info">
  <path fill="#2d4356" d="M37.85461,98.22687A13.057,13.057,0,0,1,35.39,94.81561,11.43171,11.43171,0,0,0,28,105.41211V116a2.0001,2.0001,0,0,0,2,2H64a2.0001,2.0001,0,0,0,2-2V105.41211a11.43171,11.43171,0,0,0-7.39-10.5965,13.057,13.057,0,0,1-2.4646,3.41125A7.48326,7.48326,0,0,1,62,105.41211V114H32v-8.58789A7.48326,7.48326,0,0,1,37.85461,98.22687Z"></path>
  <path fill="#0bceb2" d="M56 89a9 9 0 1 0-9 9A9.01015 9.01015 0 0 0 56 89zM42 89a5 5 0 1 1 5 5A5.00589 5.00589 0 0 1 42 89zM123 89H79a2 2 0 0 0 0 4h44a2 2 0 0 0 0-4z"></path>
  <path fill="#2d4356" d="M125,98.96484a2.0001,2.0001,0,0,0-2-2H79a2,2,0,0,0,0,4h44A2.0001,2.0001,0,0,0,125,98.96484Z"></path>
  <path fill="#2d4356" d="M28,133a4.00427,4.00427,0,0,1-4-4V71a4.00427,4.00427,0,0,1,4-4H132a4.00427,4.00427,0,0,1,4,4v32.8385a21.84188,21.84188,0,0,1,4,1.57556V71a8.00917,8.00917,0,0,0-8-8H28a8.00917,8.00917,0,0,0-8,8v58a8.00917,8.00917,0,0,0,8,8h83.57507a21.94392,21.94392,0,0,1-2.06274-4Z"></path>
  <path fill="#0bceb2" d="M77 107a2.0001 2.0001 0 0 0 2 2h35.92383a22.07406 22.07406 0 0 1 5.92816-4H79A2.0001 2.0001 0 0 0 77 107zM130 123a2.0001 2.0001 0 0 0-2 2v8a2 2 0 0 0 4 0v-8A2.0001 2.0001 0 0 0 130 123z"></path>
  <circle cx="130" cy="117" r="2" fill="#0bceb2"></circle>
  <circle cx="2" cy="141" r="2" fill="#2d4356"></circle>
  <path fill="#2d4356" d="M11 139H8a2 2 0 0 0 0 4h3a2 2 0 0 0 0-4zM160 139h-3a2 2 0 0 0 0 4h3a2 2 0 0 0 0-4z"></path>
  <circle cx="166" cy="141" r="2" fill="#2d4356"></circle>
  <path fill="#0bceb2" d="M118.15387 147h-8.30774a2.00641 2.00641 0 0 0 0 4h8.30774a2.00641 2.00641 0 0 0 0-4zM58.15387 147H49.84613a2.00641 2.00641 0 0 0 0 4h8.30774a2.00641 2.00641 0 0 0 0-4zM104 147H64a2 2 0 0 0 0 4H79.94v2H72a2 2 0 0 0 0 4H97a2 2 0 0 0 0-4H88.06v-2H104a2 2 0 0 0 0-4z"></path>
  <path fill="#2d4356" d="M150.72131 139h-9.43268a18 18 0 1 0-22.57727 0H17.27869a2.017 2.017 0 1 0 0 4H150.72131a2.017 2.017 0 1 0 0-4zM116 125a14 14 0 1 1 14 14A14.01573 14.01573 0 0 1 116 125zM42 53.3777a3 3 0 1 0-3-3A3.00344 3.00344 0 0 0 42 53.3777zm0-4.5a1.5 1.5 0 1 1-1.5 1.5A1.50148 1.50148 0 0 1 42 48.8777zM157.30471 61a2 2 0 1 0 2 2A2.00229 2.00229 0 0 0 157.30471 61zm0 3a1 1 0 1 1 1-1A1.001 1.001 0 0 1 157.30471 64zM88.66667 27a2 2 0 1 0 2 2A2.00229 2.00229 0 0 0 88.66667 27zm0 3a1 1 0 1 1 1-1A1.001 1.001 0 0 1 88.66667 30zM132 11a2 2 0 1 0 2 2A2.00229 2.00229 0 0 0 132 11zm0 3a1 1 0 1 1 1-1A1.001 1.001 0 0 1 132 14zM15 78a2 2 0 1 0-2 2A2.00229 2.00229 0 0 0 15 78zm-3 0a1 1 0 1 1 1 1A1.001 1.001 0 0 1 12 78z"></path>
  <polygon fill="#0bceb2" points="8.111 22.011 9.597 20.056 8.658 19.524 7.704 21.714 7.672 21.714 6.703 19.539 5.747 20.087 7.219 21.996 7.219 22.027 4.918 21.73 4.918 22.794 7.234 22.497 7.234 22.528 5.747 24.436 6.639 25 7.657 22.794 7.688 22.794 8.627 24.984 9.613 24.421 8.111 22.543 8.111 22.512 10.473 22.794 10.473 21.73 8.111 22.042 8.111 22.011"></polygon>
  <polygon fill="#0bceb2" points="63.334 13.153 62.478 14.252 62.991 14.577 63.577 13.306 63.595 13.306 64.136 14.568 64.704 14.243 63.839 13.162 63.839 13.144 65.199 13.306 65.199 12.694 63.839 12.874 63.839 12.856 64.695 11.73 64.154 11.423 63.604 12.684 63.586 12.684 63.028 11.432 62.478 11.747 63.325 12.847 63.325 12.865 62 12.694 62 13.306 63.334 13.135 63.334 13.153"></polygon>
  <polygon fill="#0bceb2" points="161.224 29.521 161.224 28.478 158.907 28.785 158.907 28.754 160.366 26.836 159.445 26.314 158.509 28.462 158.477 28.462 157.527 26.329 156.589 26.867 158.033 28.739 158.033 28.77 155.776 28.478 155.776 29.521 158.048 29.23 158.048 29.261 156.589 31.133 157.464 31.686 158.463 29.521 158.492 29.521 159.413 31.67 160.381 31.118 158.907 29.276 158.907 29.245 161.224 29.521"></polygon>
  <polygon fill="#0bceb2" points="122.701 48.666 123.959 47.011 123.165 46.561 122.357 48.414 122.33 48.414 121.51 46.574 120.702 47.037 121.947 48.653 121.947 48.679 120 48.427 120 49.327 121.96 49.076 121.96 49.103 120.702 50.717 121.456 51.194 122.317 49.327 122.343 49.327 123.138 51.181 123.972 50.704 122.701 49.116 122.701 49.089 124.7 49.327 124.7 48.427 122.701 48.692 122.701 48.666"></polygon>
</svg>
