<svg xmlns="http://www.w3.org/2000/svg" viewBox="0 0 64 64" id="note">
  <path fill="#41ead4" d="M17.912 9.9c-5.88-.963-6.846-1.929-7.809-7.809a.1.1 0 0 0-.206 0C8.934 7.968 7.968 8.934 2.088 9.9a.1.1 0 0 0 0 .206c5.88.963 6.846 1.929 7.809 7.809a.1.1 0 0 0 .206 0c.963-5.88 1.929-6.846 7.809-7.809a.1.1 0 0 0 0-.206Z"></path>
  <path fill="#4f5d75" d="M11.18 24H3v38h58V24H11.18z"></path>
  <path fill="#41ead4" d="m32 62-.389-.261a20.638 20.638 0 0 0-23.222 0L8 62V25.837l.389-.261a20.638 20.638 0 0 1 23.222 0l.389.261zm9-39.78A20.714 20.714 0 0 0 35.18 24a22.113 22.113 0 0 0-2.79 1.58l-.39.26V62l.39-.26a20.628 20.628 0 0 1 23.22 0L56 62V25.84l-.39-.26A22.113 22.113 0 0 0 52.82 24 20.714 20.714 0 0 0 47 22.22z"></path>
  <path fill="#2d3142" d="M17 29h12v2H17zM11 36h18v2H11zM11 44h18v2H11zM11 52h18v2H11z"></path>
  <path fill="#4f5d75" d="m44 38 3-10h-6l3 10z"></path>
  <path fill="#7fb800" d="M41 6h6v22h-6z"></path>
  <path fill="#f71735" d="M43 2h2a2 2 0 0 1 2 2v2h-6V4a2 2 0 0 1 2-2Z"></path>
</svg>
