<svg xmlns="http://www.w3.org/2000/svg" width="32" height="32" id="web">
  <g transform="translate(33.307 -1021.139)">
    <path fill="#e9eded" d="M-30.307 1026.139h26v24h-26z" color="#000" overflow="visible" style="isolation:auto;mix-blend-mode:normal"></path>
    <path fill="#f05542" d="M-29.307 1027.139h24v22h-24z" color="#000" overflow="visible" style="isolation:auto;mix-blend-mode:normal"></path>
    <path fill="#2b4255" d="M-30.807 1023.139a.5.5 0 0 0-.5.5v27a.5.5 0 0 0 .5.5h27a.5.5 0 0 0 .5-.5v-27a.5.5 0 0 0-.5-.5zm.5 3h26v24h-26z" color="#000" font-family="sans-serif" font-weight="400" overflow="visible" style="line-height:normal;text-indent:0;text-align:start;text-decoration-line:none;text-decoration-style:solid;text-decoration-color:#000;text-transform:none;block-progression:tb;isolation:auto;mix-blend-mode:normal"></path>
    <circle cx="-28.807" cy="1024.639" r=".5" fill="#f8b74e" fill-opacity=".976" color="#000" overflow="visible" style="isolation:auto;mix-blend-mode:normal"></circle>
    <circle cx="-26.807" cy="1024.639" r=".5" fill="#25b39e" color="#000" overflow="visible" style="isolation:auto;mix-blend-mode:normal"></circle>
    <circle cx="-24.807" cy="1024.639" r=".5" fill="#f05542" color="#000" overflow="visible" style="isolation:auto;mix-blend-mode:normal"></circle>
    <path fill="#4bbfeb" d="M-17.355 1032.135a5.991 5.991 0 0 0-1.07.2c-.248.633-.451 1.293-.623 1.966h1.693v-2.166zm1.096 0v2.166h1.648a16.831 16.831 0 0 0-.627-1.98 5.992 5.992 0 0 0-1.021-.186zm2.38.736c.15.47.286.946.402 1.43h1.319a6.056 6.056 0 0 0-1.721-1.43zm-5.914.034c-.635.364-1.2.835-1.664 1.396h1.274c.114-.472.244-.938.39-1.396zm-2.379 2.492a5.978 5.978 0 0 0-.635 2.192h2.151c.036-.738.12-1.47.246-2.192h-1.762zm2.877 0a16.779 16.779 0 0 0-.257 2.192h2.197v-2.192h-1.94zm3.036 0v2.192h2.15a16.781 16.781 0 0 0-.256-2.192h-1.894zm3.01 0c.126.723.21 1.454.245 2.192h2.197a5.979 5.979 0 0 0-.636-2.192h-1.807zm-9.558 3.288a5.98 5.98 0 0 0 .635 2.192h1.679a16.336 16.336 0 0 1-.178-2.192h-2.136zm3.238 0c.012.735.068 1.468.184 2.192h2.03v-2.192h-2.214zm3.31 0v2.192h1.984c.116-.724.172-1.457.184-2.192h-2.168zm3.27 0a16.337 16.337 0 0 1-.177 2.192h1.723a5.979 5.979 0 0 0 .636-2.192h-2.182zm-8.468 3.288c.428.518.946.959 1.522 1.31-.134-.432-.249-.87-.349-1.31h-1.173zm2.301 0c.16.66.357 1.31.615 1.937.381.114.777.192 1.186.229v-2.166h-1.8zm2.897 0v2.166c.391-.035.77-.11 1.136-.216.26-.631.457-1.286.619-1.95h-1.755zm2.883 0c-.102.452-.222.9-.362 1.344.6-.356 1.138-.809 1.58-1.344h-1.218z"></path>
  </g>
</svg>
